<?xml version="1.0" encoding="utf-8"?>
<!-- Generator: Adobe Illustrator 16.0.4, SVG Export Plug-In . SVG Version: 6.00 Build 0)  -->
<!DOCTYPE svg PUBLIC "-//W3C//DTD SVG 1.1//EN" "http://www.w3.org/Graphics/SVG/1.1/DTD/svg11.dtd">
<svg version="1.1" id="Layer_1" xmlns="http://www.w3.org/2000/svg" xmlns:xlink="http://www.w3.org/1999/xlink" x="0px" y="0px"
	 width="335.652px" height="84.277px" viewBox="0 0 335.652 84.277" enable-background="new 0 0 335.652 84.277"
	 xml:space="preserve">
<g>
	<path fill="#525252" d="M97.855,71.214c-0.322-0.361-0.715-0.632-1.18-0.814c-0.463-0.181-0.986-0.271-1.567-0.271
		c-1.279,0-2.266,0.425-2.959,1.273c-0.692,0.853-1.039,2.116-1.039,3.799c0,0.777,0.095,1.476,0.287,2.086
		c0.19,0.613,0.465,1.131,0.823,1.553c0.356,0.421,0.796,0.743,1.316,0.962c0.521,0.22,1.104,0.329,1.757,0.329
		c0.533,0,0.998-0.059,1.396-0.175c0.396-0.117,0.727-0.265,0.991-0.44c0.264-0.176,0.46-0.366,0.589-0.575
		c0.129-0.207,0.194-0.4,0.194-0.584c0-0.151-0.037-0.285-0.111-0.396c-0.072-0.109-0.15-0.186-0.231-0.22
		c-0.105,0.164-0.243,0.321-0.411,0.471c-0.167,0.148-0.358,0.283-0.577,0.399c-0.216,0.116-0.458,0.21-0.726,0.281
		c-0.267,0.07-0.556,0.104-0.867,0.104c-0.428,0-0.807-0.071-1.136-0.214c-0.33-0.145-0.605-0.368-0.832-0.674
		c-0.227-0.305-0.4-0.692-0.521-1.164c-0.12-0.473-0.186-1.035-0.197-1.691h6.006v-0.826c0-0.71-0.087-1.331-0.26-1.867
		C98.427,72.024,98.179,71.574,97.855,71.214z M92.89,74.285c0.064-1.043,0.277-1.835,0.639-2.377
		c0.361-0.541,0.876-0.812,1.545-0.812c0.364,0,0.67,0.076,0.92,0.229c0.25,0.152,0.451,0.367,0.604,0.648
		c0.152,0.281,0.264,0.619,0.334,1.011c0.07,0.394,0.105,0.826,0.105,1.302L92.89,74.285L92.89,74.285z"/>
	<path fill="#525252" d="M299.469,73.178c-0.369-0.316-0.806-0.554-1.309-0.713c-0.501-0.157-1.042-0.237-1.624-0.237
		c-0.533,0-0.972,0.034-1.314,0.099c-0.344,0.062-0.606,0.129-0.789,0.191l0.344-3.955h3.496c0.188,0,0.342,0.017,0.462,0.044
		c0.121,0.03,0.216,0.075,0.285,0.138c0.07,0.062,0.122,0.138,0.153,0.229c0.033,0.092,0.06,0.201,0.076,0.329l0.07,0.536h0.756
		l-0.087-2.715h-6.022l-0.582,6.371l0.433,0.124c0.112-0.046,0.231-0.095,0.36-0.141c0.13-0.048,0.279-0.091,0.453-0.128
		c0.175-0.039,0.373-0.068,0.601-0.094c0.225-0.023,0.494-0.033,0.806-0.033c0.416,0,0.793,0.058,1.127,0.17
		c0.335,0.114,0.621,0.288,0.862,0.523c0.24,0.232,0.427,0.526,0.556,0.88c0.129,0.35,0.192,0.764,0.192,1.238
		c0,0.567-0.063,1.048-0.192,1.438c-0.129,0.389-0.31,0.702-0.542,0.939c-0.23,0.236-0.506,0.406-0.818,0.51
		c-0.314,0.103-0.656,0.153-1.026,0.153c-0.362,0-0.681-0.047-0.954-0.141s-0.499-0.221-0.68-0.382
		c-0.179-0.161-0.312-0.354-0.403-0.577c-0.092-0.221-0.138-0.462-0.138-0.721c-0.387,0-0.673,0.095-0.858,0.282
		c-0.184,0.188-0.276,0.446-0.276,0.781c0,0.199,0.055,0.405,0.158,0.619c0.105,0.214,0.288,0.408,0.547,0.584
		c0.259,0.178,0.604,0.322,1.042,0.437c0.438,0.115,0.991,0.171,1.66,0.171c0.688,0,1.301-0.097,1.84-0.293
		c0.54-0.196,0.997-0.476,1.37-0.836c0.372-0.36,0.656-0.793,0.854-1.297c0.195-0.503,0.295-1.062,0.295-1.669
		c0-0.635-0.104-1.188-0.313-1.665C300.127,73.892,299.838,73.494,299.469,73.178z"/>
	<path fill="#525252" d="M120.492,79.181c-0.417,0-0.75-0.144-1-0.432c-0.25-0.287-0.374-0.738-0.374-1.354v-6.063h2.359v-1.028
		h-2.359v-2.216h-0.828c-0.094,0.464-0.203,0.849-0.331,1.156c-0.125,0.308-0.292,0.572-0.497,0.796
		c-0.199,0.205-0.43,0.351-0.689,0.438c-0.263,0.088-0.501,0.131-0.719,0.131v0.035c-0.058-0.062-0.121-0.122-0.195-0.175
		c-0.32-0.229-0.81-0.344-1.465-0.344c-0.4,0-0.731,0.052-0.995,0.153c-0.267,0.104-0.487,0.244-0.666,0.424
		c-0.179,0.179-0.329,0.386-0.453,0.623c-0.124,0.236-0.244,0.491-0.361,0.761h-0.089l-0.343-1.784h-2.773v0.756h0.054
		c0.197,0,0.387,0.016,0.567,0.044c0.18,0.028,0.334,0.087,0.472,0.176c0.135,0.089,0.242,0.213,0.319,0.373
		c0.08,0.161,0.121,0.374,0.121,0.639v5.616c0,0.281-0.041,0.507-0.121,0.677c-0.078,0.17-0.184,0.301-0.316,0.391
		c-0.132,0.091-0.287,0.15-0.466,0.181c-0.18,0.028-0.371,0.045-0.576,0.045h-0.054v0.756h5.203v-0.756h-0.501
		c-0.2,0-0.389-0.015-0.567-0.04c-0.18-0.027-0.337-0.08-0.472-0.163c-0.136-0.082-0.242-0.204-0.321-0.364
		c-0.08-0.161-0.119-0.374-0.119-0.638v-2.83c0-0.229,0.011-0.482,0.035-0.765c0.022-0.28,0.062-0.563,0.118-0.848
		c0.056-0.285,0.129-0.562,0.221-0.832c0.092-0.27,0.203-0.508,0.334-0.715c0.132-0.209,0.287-0.375,0.463-0.501
		c0.175-0.128,0.375-0.189,0.598-0.189c0.353,0,0.598,0.109,0.74,0.329c0.14,0.22,0.211,0.579,0.211,1.076
		c0.306,0,0.563-0.03,0.775-0.092c0.21-0.062,0.384-0.149,0.521-0.265c0.134-0.112,0.231-0.25,0.293-0.408
		c0.062-0.157,0.092-0.331,0.092-0.52c0-0.037-0.008-0.068-0.011-0.104h1.099v6.012c0,0.515,0.052,0.952,0.154,1.31
		c0.104,0.358,0.26,0.646,0.473,0.86c0.21,0.218,0.481,0.375,0.81,0.471c0.329,0.099,0.722,0.146,1.18,0.146
		c0.143,0,0.291-0.007,0.45-0.021c0.158-0.017,0.31-0.034,0.453-0.062c0.143-0.026,0.278-0.057,0.399-0.092
		c0.124-0.035,0.224-0.07,0.302-0.106v-0.791c-0.189,0.036-0.374,0.065-0.557,0.089C120.908,79.168,120.708,79.181,120.492,79.181z"
		/>
	<path fill="#525252" d="M107.674,79.137c-0.144-0.041-0.258-0.111-0.347-0.211c-0.089-0.101-0.154-0.231-0.195-0.396
		c-0.041-0.161-0.062-0.37-0.062-0.622V73.24c0-0.573-0.069-1.06-0.205-1.453c-0.138-0.396-0.345-0.718-0.622-0.963
		c-0.276-0.246-0.619-0.424-1.03-0.532c-0.412-0.108-0.894-0.163-1.443-0.163c-0.446,0-0.867,0.034-1.261,0.098
		c-0.393,0.063-0.737,0.166-1.033,0.303c-0.297,0.139-0.531,0.314-0.701,0.532c-0.17,0.216-0.255,0.479-0.255,0.791
		c0,0.416,0.131,0.708,0.391,0.878c0.262,0.17,0.644,0.255,1.143,0.255c0-0.28,0.02-0.542,0.06-0.781
		c0.042-0.239,0.122-0.448,0.243-0.623c0.12-0.178,0.289-0.313,0.502-0.409c0.214-0.097,0.494-0.146,0.841-0.146
		c0.37,0,0.665,0.056,0.885,0.163s0.39,0.261,0.506,0.456c0.117,0.196,0.193,0.431,0.229,0.703c0.035,0.272,0.053,0.569,0.053,0.893
		v1.08l-1.498,0.054c-1.378,0.041-2.408,0.294-3.09,0.756c-0.681,0.464-1.021,1.172-1.021,2.127c0,0.492,0.07,0.919,0.21,1.28
		c0.142,0.358,0.336,0.657,0.586,0.896c0.25,0.236,0.547,0.414,0.89,0.527c0.343,0.115,0.715,0.171,1.113,0.171
		c0.375,0,0.696-0.042,0.964-0.127c0.267-0.085,0.506-0.203,0.717-0.355c0.212-0.151,0.405-0.335,0.582-0.545
		c0.175-0.211,0.357-0.441,0.545-0.693h0.15l0.28,1.547h2.438v-0.756h-0.053C107.991,79.199,107.819,79.177,107.674,79.137z
		 M105.372,76.518c0,0.38-0.055,0.729-0.167,1.037c-0.112,0.31-0.271,0.573-0.479,0.791c-0.209,0.216-0.462,0.384-0.759,0.501
		c-0.297,0.116-0.626,0.175-0.99,0.175c-0.499,0-0.867-0.138-1.104-0.418c-0.239-0.276-0.356-0.696-0.356-1.26
		c0-0.353,0.046-0.662,0.136-0.933c0.092-0.27,0.243-0.495,0.453-0.683c0.212-0.184,0.49-0.327,0.833-0.43
		c0.343-0.104,0.77-0.164,1.279-0.189l1.154-0.053V76.518z"/>
	<path fill="#525252" d="M85.083,67.861h0.239c0.206,0,0.396,0.015,0.575,0.044c0.181,0.028,0.334,0.09,0.467,0.182
		c0.133,0.09,0.237,0.221,0.317,0.391s0.118,0.396,0.118,0.677v3.639h-5.862v-3.639c0-0.281,0.039-0.507,0.119-0.677
		s0.186-0.301,0.316-0.391c0.133-0.092,0.289-0.152,0.472-0.182c0.182-0.029,0.373-0.044,0.572-0.044h0.237v-0.756h-5.247v0.756
		h0.228c0.2,0,0.391,0.013,0.568,0.039c0.179,0.026,0.336,0.085,0.471,0.171c0.135,0.09,0.242,0.214,0.322,0.374
		c0.08,0.161,0.119,0.373,0.119,0.638v8.825c0,0.281-0.039,0.507-0.115,0.677s-0.183,0.301-0.316,0.391
		c-0.136,0.091-0.292,0.15-0.472,0.182c-0.179,0.027-0.372,0.044-0.577,0.044h-0.228v0.756h5.247V79.2h-0.237
		c-0.2,0-0.391-0.017-0.572-0.044c-0.183-0.03-0.339-0.091-0.472-0.182c-0.131-0.09-0.236-0.221-0.316-0.391
		s-0.119-0.396-0.119-0.677v-4.22H86.8v4.22c0,0.281-0.038,0.507-0.118,0.677s-0.185,0.301-0.317,0.391
		c-0.133,0.091-0.287,0.15-0.467,0.182c-0.18,0.027-0.37,0.044-0.575,0.044h-0.239v0.756h5.247V79.2h-0.228
		c-0.2,0-0.391-0.015-0.568-0.04c-0.179-0.027-0.336-0.08-0.471-0.163c-0.134-0.082-0.242-0.204-0.322-0.364
		c-0.078-0.161-0.119-0.374-0.119-0.638v-8.842c0-0.281,0.039-0.507,0.115-0.677s0.183-0.301,0.317-0.391
		c0.135-0.092,0.292-0.152,0.471-0.182s0.372-0.044,0.577-0.044h0.228v-0.756h-5.247V67.861z"/>
	<path fill="#525252" d="M71.928,71.214c-0.322-0.361-0.718-0.632-1.182-0.814c-0.463-0.181-0.984-0.271-1.565-0.271
		c-1.28,0-2.266,0.425-2.959,1.273c-0.692,0.853-1.039,2.116-1.039,3.799c0,0.777,0.095,1.476,0.287,2.086
		c0.19,0.613,0.465,1.131,0.822,1.553c0.357,0.421,0.796,0.743,1.316,0.962c0.519,0.22,1.104,0.329,1.756,0.329
		c0.534,0,1-0.059,1.396-0.175c0.396-0.117,0.726-0.265,0.99-0.44s0.46-0.366,0.589-0.575c0.13-0.207,0.193-0.4,0.193-0.584
		c0-0.151-0.036-0.285-0.11-0.396c-0.071-0.109-0.149-0.186-0.232-0.22c-0.104,0.164-0.241,0.321-0.409,0.471
		c-0.167,0.148-0.359,0.283-0.577,0.399s-0.458,0.21-0.726,0.281c-0.268,0.07-0.558,0.104-0.867,0.104
		c-0.428,0-0.807-0.071-1.136-0.214c-0.329-0.145-0.607-0.368-0.832-0.674c-0.228-0.305-0.4-0.692-0.521-1.164
		c-0.12-0.473-0.186-1.035-0.198-1.691h6.006v-0.826c0-0.71-0.088-1.331-0.259-1.867C72.499,72.023,72.251,71.574,71.928,71.214z
		 M66.962,74.285c0.065-1.043,0.278-1.835,0.64-2.377c0.36-0.541,0.876-0.812,1.545-0.812c0.365,0,0.671,0.076,0.92,0.229
		c0.249,0.152,0.45,0.367,0.604,0.648c0.152,0.281,0.265,0.619,0.334,1.011c0.071,0.394,0.104,0.826,0.104,1.302L66.962,74.285
		L66.962,74.285z"/>
	<path fill="#525252" d="M239.603,68.255c0.094,0.088,0.204,0.152,0.326,0.188c0.124,0.039,0.258,0.06,0.404,0.06
		c0.143,0,0.272-0.021,0.396-0.06c0.124-0.036,0.229-0.102,0.321-0.188c0.091-0.087,0.164-0.202,0.22-0.342
		c0.057-0.143,0.083-0.316,0.083-0.527s-0.026-0.388-0.083-0.527c-0.056-0.142-0.129-0.255-0.22-0.344
		c-0.093-0.088-0.197-0.147-0.321-0.184s-0.255-0.054-0.396-0.054c-0.146,0-0.28,0.019-0.404,0.054
		c-0.122,0.035-0.232,0.096-0.326,0.184c-0.095,0.089-0.166,0.202-0.22,0.344c-0.054,0.141-0.079,0.316-0.079,0.527
		s0.025,0.386,0.079,0.527C239.437,68.053,239.509,68.168,239.603,68.255z"/>
	<path fill="#525252" d="M268.735,71.214c-0.321-0.361-0.715-0.632-1.179-0.814c-0.464-0.181-0.985-0.271-1.567-0.271
		c-1.279,0-2.266,0.425-2.959,1.273c-0.692,0.853-1.039,2.116-1.039,3.799c0,0.777,0.096,1.476,0.287,2.086
		c0.189,0.613,0.465,1.131,0.822,1.553c0.358,0.421,0.799,0.743,1.316,0.962c0.521,0.22,1.104,0.329,1.757,0.329
		c0.533,0,0.998-0.059,1.396-0.175c0.396-0.117,0.728-0.265,0.991-0.44s0.46-0.366,0.589-0.575c0.13-0.207,0.194-0.4,0.194-0.584
		c0-0.151-0.036-0.285-0.109-0.396c-0.074-0.109-0.152-0.186-0.233-0.22c-0.105,0.164-0.242,0.321-0.41,0.471
		c-0.167,0.148-0.358,0.283-0.574,0.399c-0.219,0.116-0.46,0.21-0.729,0.281c-0.268,0.07-0.556,0.104-0.867,0.104
		c-0.429,0-0.807-0.071-1.136-0.214c-0.329-0.145-0.605-0.368-0.832-0.674c-0.227-0.305-0.4-0.692-0.521-1.164
		c-0.12-0.473-0.187-1.035-0.196-1.691h6.005v-0.826c0-0.71-0.087-1.331-0.261-1.867C269.308,72.023,269.06,71.574,268.735,71.214z
		 M263.77,74.285c0.064-1.043,0.277-1.835,0.64-2.377c0.36-0.541,0.876-0.812,1.545-0.812c0.364,0,0.67,0.076,0.92,0.229
		c0.249,0.151,0.451,0.367,0.604,0.648c0.152,0.281,0.264,0.619,0.334,1.011c0.071,0.394,0.105,0.826,0.105,1.302L263.77,74.285
		L263.77,74.285z"/>
	<path fill="#525252" d="M204.191,68.255c0.094,0.088,0.201,0.152,0.325,0.188c0.122,0.039,0.259,0.06,0.404,0.06
		c0.141,0,0.272-0.021,0.396-0.06c0.122-0.036,0.229-0.102,0.32-0.188c0.092-0.087,0.164-0.202,0.222-0.342
		c0.055-0.143,0.083-0.316,0.083-0.527s-0.028-0.388-0.083-0.527c-0.058-0.142-0.13-0.255-0.222-0.344
		c-0.091-0.088-0.198-0.147-0.32-0.184c-0.124-0.035-0.257-0.054-0.396-0.054c-0.146,0-0.282,0.019-0.404,0.054
		c-0.124,0.035-0.231,0.096-0.325,0.184c-0.094,0.089-0.168,0.202-0.223,0.344c-0.053,0.141-0.076,0.316-0.076,0.527
		s0.023,0.386,0.076,0.527C204.023,68.053,204.098,68.168,204.191,68.255z"/>
	<path fill="#525252" d="M39.174,79.155c-0.129-0.029-0.244-0.08-0.344-0.153c-0.099-0.072-0.186-0.171-0.26-0.294
		c-0.073-0.123-0.146-0.279-0.216-0.467l-4.075-11.136H32.87l-3.998,10.688c-0.11,0.286-0.212,0.521-0.304,0.702
		c-0.09,0.183-0.187,0.324-0.285,0.432c-0.101,0.104-0.212,0.177-0.334,0.214c-0.124,0.039-0.274,0.06-0.449,0.06h-0.343v0.756
		h4.403V79.2h-0.414c-0.405,0-0.706-0.07-0.903-0.213c-0.196-0.14-0.295-0.362-0.295-0.667c0-0.1,0.014-0.218,0.044-0.355
		c0.028-0.138,0.071-0.277,0.124-0.417l0.688-1.891h4.735l0.723,2.015c0.048,0.134,0.085,0.255,0.111,0.357
		c0.024,0.106,0.039,0.21,0.039,0.31c0,0.573-0.361,0.861-1.083,0.861h-0.414v0.756h4.957V79.2h-0.237
		C39.456,79.199,39.303,79.183,39.174,79.155z M31.145,74.751l1.223-3.314c0.106-0.28,0.2-0.536,0.282-0.768
		c0.083-0.232,0.155-0.453,0.221-0.664c0.063-0.211,0.124-0.418,0.18-0.619c0.056-0.204,0.104-0.412,0.146-0.629
		c0.099,0.434,0.226,0.884,0.382,1.349c0.156,0.466,0.328,0.965,0.516,1.499l1.118,3.146H31.145L31.145,74.751z"/>
	<path fill="#525252" d="M63.98,79.155c-0.17-0.029-0.317-0.09-0.439-0.181c-0.124-0.09-0.221-0.221-0.29-0.391
		c-0.07-0.17-0.105-0.396-0.105-0.677v-4.255c0-0.615-0.071-1.146-0.212-1.591s-0.346-0.811-0.616-1.094
		c-0.27-0.285-0.604-0.496-1-0.634c-0.396-0.139-0.85-0.207-1.359-0.207c-1.227,0-2.11,0.545-2.65,1.636h-0.09
		c0.014-0.17,0.025-0.344,0.036-0.519c0.013-0.152,0.021-0.317,0.026-0.498c0.007-0.178,0.009-0.35,0.009-0.514v-3.955h-3.317v0.756
		h0.14c0.2,0,0.389,0.015,0.568,0.041c0.179,0.023,0.336,0.083,0.471,0.17c0.137,0.089,0.243,0.213,0.322,0.373
		c0.079,0.162,0.118,0.374,0.118,0.638v9.65c0,0.282-0.039,0.508-0.118,0.678c-0.08,0.17-0.187,0.301-0.317,0.391
		c-0.133,0.091-0.288,0.15-0.467,0.181c-0.172,0.027-0.359,0.041-0.557,0.042v-0.14c-0.188,0.036-0.374,0.065-0.554,0.089
		c-0.182,0.022-0.382,0.035-0.6,0.035c-0.416,0-0.749-0.144-0.998-0.432c-0.25-0.287-0.375-0.738-0.375-1.354v-6.063h2.36v-1.028
		h-2.36v-2.216h-0.827c-0.095,0.464-0.205,0.849-0.331,1.156s-0.292,0.572-0.498,0.796c-0.2,0.205-0.43,0.351-0.692,0.438
		c-0.26,0.088-0.499,0.131-0.717,0.131v0.723h1.374v6.012c0,0.515,0.051,0.952,0.154,1.31c0.103,0.358,0.26,0.646,0.471,0.86
		c0.212,0.218,0.481,0.375,0.812,0.471c0.329,0.099,0.722,0.146,1.18,0.146c0.14,0,0.291-0.007,0.448-0.021
		c0.16-0.017,0.31-0.035,0.455-0.062c0.143-0.026,0.275-0.058,0.399-0.092c0.058-0.018,0.091-0.033,0.139-0.05v0.05h4.851v-0.756
		h-0.053c-0.2,0-0.39-0.015-0.568-0.04c-0.179-0.027-0.336-0.08-0.471-0.163c-0.135-0.082-0.243-0.204-0.322-0.364
		c-0.078-0.161-0.119-0.374-0.119-0.638v-3.797c0-0.439,0.044-0.841,0.133-1.199c0.088-0.36,0.222-0.669,0.4-0.924
		s0.405-0.451,0.678-0.588c0.274-0.139,0.599-0.207,0.975-0.207c0.363,0,0.672,0.056,0.925,0.163
		c0.251,0.107,0.455,0.268,0.61,0.479c0.156,0.212,0.27,0.469,0.341,0.774c0.069,0.305,0.105,0.652,0.105,1.047v6.213h3.134v-0.756
		h-0.053C64.335,79.199,64.151,79.183,63.98,79.155z"/>
	<path fill="#525252" d="M43.749,79.181c-0.416,0-0.749-0.144-0.998-0.432c-0.25-0.287-0.375-0.738-0.375-1.354v-6.063h2.361v-1.028
		h-2.361v-2.216h-0.828c-0.094,0.464-0.203,0.849-0.328,1.156c-0.127,0.308-0.293,0.572-0.498,0.796
		c-0.2,0.205-0.431,0.351-0.692,0.438c-0.26,0.088-0.501,0.131-0.717,0.131v0.723h1.374v6.012c0,0.515,0.051,0.952,0.153,1.31
		c0.104,0.358,0.261,0.646,0.472,0.86c0.212,0.218,0.48,0.375,0.811,0.471c0.329,0.099,0.723,0.146,1.182,0.146
		c0.14,0,0.289-0.007,0.446-0.021c0.16-0.017,0.311-0.034,0.455-0.062c0.144-0.026,0.276-0.057,0.4-0.092s0.223-0.07,0.299-0.106
		v-0.791c-0.188,0.036-0.373,0.065-0.554,0.089C44.167,79.168,43.966,79.181,43.749,79.181z"/>
	<path fill="#525252" d="M181.546,68.255c0.095,0.088,0.204,0.152,0.326,0.188c0.124,0.039,0.258,0.06,0.405,0.06
		c0.142,0,0.271-0.021,0.396-0.06c0.124-0.036,0.229-0.102,0.322-0.188c0.09-0.087,0.164-0.202,0.219-0.342
		c0.058-0.143,0.083-0.316,0.083-0.527s-0.025-0.388-0.083-0.527c-0.055-0.142-0.129-0.255-0.219-0.344
		c-0.093-0.088-0.198-0.147-0.322-0.184s-0.255-0.054-0.396-0.054c-0.147,0-0.281,0.019-0.405,0.054
		c-0.122,0.035-0.231,0.096-0.326,0.184c-0.094,0.089-0.166,0.202-0.219,0.344c-0.054,0.141-0.08,0.316-0.08,0.527
		s0.026,0.386,0.08,0.527C181.38,68.053,181.452,68.168,181.546,68.255z"/>
	<path fill="#525252" d="M226.829,70.027c-0.088-0.085-0.198-0.151-0.329-0.201c-0.133-0.051-0.29-0.074-0.473-0.074
		c-0.198,0-0.386,0.032-0.56,0.096c-0.172,0.065-0.333,0.146-0.479,0.242c-0.146,0.098-0.277,0.202-0.396,0.317
		c-0.116,0.112-0.22,0.217-0.309,0.312c-0.087-0.076-0.203-0.149-0.347-0.22c-0.146-0.071-0.307-0.133-0.484-0.189
		c-0.18-0.055-0.374-0.1-0.586-0.131c-0.211-0.034-0.425-0.05-0.643-0.05c-0.57,0-1.065,0.076-1.488,0.229
		c-0.423,0.153-0.775,0.373-1.058,0.66c-0.28,0.286-0.491,0.635-0.634,1.046c-0.142,0.41-0.21,0.876-0.21,1.397
		c0,0.298,0.035,0.588,0.109,0.869c0.072,0.28,0.179,0.542,0.315,0.777c0.14,0.237,0.31,0.448,0.511,0.633
		c0.204,0.187,0.434,0.33,0.691,0.436c-0.411,0.246-0.71,0.501-0.896,0.761c-0.189,0.261-0.283,0.57-0.283,0.929
		c0,0.192,0.03,0.367,0.089,0.526c0.058,0.157,0.134,0.299,0.229,0.421c0.094,0.124,0.199,0.229,0.318,0.317
		c0.116,0.088,0.236,0.157,0.36,0.21c-0.301,0.054-0.586,0.139-0.854,0.255c-0.271,0.117-0.51,0.271-0.719,0.457
		c-0.207,0.188-0.373,0.414-0.497,0.678c-0.122,0.265-0.184,0.571-0.184,0.922c0,0.826,0.312,1.472,0.933,1.936
		c0.622,0.462,1.562,0.692,2.817,0.692c0.814,0,1.524-0.077,2.127-0.236c0.602-0.157,1.099-0.382,1.491-0.672
		c0.394-0.29,0.686-0.644,0.876-1.06s0.286-0.883,0.286-1.397c0-0.387-0.055-0.744-0.162-1.075
		c-0.109-0.331-0.281-0.616-0.521-0.854c-0.237-0.236-0.544-0.423-0.921-0.558c-0.375-0.134-0.833-0.203-1.373-0.203h-2.042
		c-0.159,0-0.307-0.007-0.444-0.021c-0.138-0.015-0.257-0.046-0.356-0.098c-0.101-0.05-0.177-0.119-0.233-0.206
		c-0.056-0.088-0.084-0.205-0.084-0.352c0-0.135,0.023-0.259,0.071-0.37c0.046-0.109,0.109-0.211,0.188-0.298
		c0.079-0.088,0.173-0.168,0.277-0.238c0.104-0.069,0.216-0.135,0.335-0.192c0.046,0.008,0.107,0.015,0.185,0.022
		c0.076,0.008,0.158,0.014,0.247,0.019c0.088,0.002,0.176,0.005,0.265,0.009c0.089,0.002,0.166,0.004,0.237,0.004
		c0.547,0,1.021-0.078,1.432-0.233c0.407-0.153,0.745-0.37,1.012-0.646c0.269-0.274,0.468-0.603,0.604-0.979
		c0.135-0.379,0.202-0.791,0.202-1.234c0-0.518-0.065-0.945-0.198-1.288s-0.301-0.64-0.506-0.894
		c0.115-0.076,0.236-0.131,0.359-0.166c0.124-0.035,0.262-0.053,0.415-0.053c0.122,0,0.224,0.02,0.299,0.057
		c0.076,0.039,0.137,0.088,0.182,0.15c0.044,0.06,0.074,0.127,0.092,0.196s0.026,0.142,0.026,0.212c0.165,0,0.307-0.024,0.427-0.076
		c0.12-0.049,0.219-0.116,0.295-0.201s0.133-0.185,0.172-0.299c0.039-0.113,0.057-0.235,0.057-0.365c0-0.122-0.021-0.24-0.064-0.354
		C226.983,70.212,226.918,70.112,226.829,70.027z M220.732,79.898c0.236-0.044,0.482-0.066,0.733-0.066h1.771
		c0.3,0,0.564,0.021,0.793,0.062c0.229,0.04,0.422,0.113,0.577,0.216c0.156,0.104,0.271,0.242,0.353,0.421
		c0.079,0.18,0.118,0.405,0.118,0.683c0,0.315-0.05,0.605-0.15,0.874c-0.099,0.268-0.271,0.497-0.519,0.689
		c-0.246,0.192-0.58,0.344-1,0.453c-0.419,0.107-0.952,0.162-1.598,0.162c-0.457,0-0.836-0.048-1.138-0.142
		c-0.299-0.095-0.535-0.224-0.713-0.387c-0.175-0.163-0.299-0.359-0.37-0.589c-0.067-0.229-0.104-0.475-0.104-0.737
		c0-0.357,0.056-0.647,0.167-0.87c0.111-0.225,0.26-0.396,0.445-0.52C220.283,80.026,220.494,79.941,220.732,79.898z
		 M223.689,74.396c-0.056,0.283-0.146,0.518-0.275,0.697c-0.13,0.183-0.296,0.316-0.498,0.405c-0.203,0.087-0.451,0.131-0.744,0.131
		c-0.581,0-0.999-0.179-1.255-0.536c-0.255-0.357-0.383-0.918-0.383-1.687c0-0.81,0.124-1.41,0.374-1.808
		c0.249-0.395,0.665-0.593,1.245-0.593c0.588,0,1.004,0.192,1.252,0.58c0.245,0.386,0.369,0.983,0.369,1.793
		C223.774,73.773,223.746,74.111,223.689,74.396z"/>
	<path fill="#525252" d="M280.672,79.155c-0.179-0.029-0.334-0.09-0.471-0.181c-0.134-0.09-0.24-0.221-0.316-0.391
		c-0.075-0.17-0.114-0.396-0.114-0.677V67.034h-1.152l-1.269,0.933c-0.3,0.217-0.569,0.402-0.813,0.558
		c-0.245,0.156-0.47,0.287-0.678,0.396c-0.209,0.109-0.406,0.197-0.59,0.264c-0.187,0.069-0.37,0.126-0.552,0.172
		c0,0.289,0.085,0.521,0.256,0.699c0.17,0.178,0.388,0.27,0.65,0.27c0.178,0,0.354-0.047,0.533-0.137
		c0.179-0.092,0.362-0.22,0.55-0.383c0.188-0.164,0.385-0.36,0.59-0.589c0.205-0.229,0.423-0.483,0.653-0.765v9.457
		c0,0.281-0.041,0.507-0.121,0.677c-0.078,0.17-0.184,0.301-0.316,0.391c-0.131,0.091-0.286,0.15-0.466,0.182
		c-0.181,0.027-0.371,0.044-0.577,0.044h-1.205v0.756h6.867v-0.756h-0.882C281.044,79.199,280.853,79.183,280.672,79.155z"/>
	<path fill="#525252" d="M217.395,79.155c-0.171-0.029-0.316-0.09-0.44-0.181c-0.124-0.09-0.219-0.221-0.286-0.391
		c-0.066-0.17-0.102-0.396-0.102-0.677v-4.255c0-0.615-0.068-1.146-0.207-1.591c-0.138-0.445-0.338-0.811-0.598-1.094
		c-0.263-0.285-0.579-0.496-0.952-0.634c-0.372-0.139-0.797-0.207-1.272-0.207c-0.287,0-0.562,0.022-0.823,0.066
		c-0.26,0.042-0.508,0.126-0.738,0.246c-0.232,0.12-0.451,0.286-0.66,0.501c-0.209,0.214-0.405,0.486-0.595,0.821h-0.088
		l-0.237-1.459h-2.915v0.756h0.053c0.2,0,0.39,0.016,0.568,0.044s0.336,0.087,0.471,0.176c0.137,0.089,0.242,0.213,0.322,0.373
		c0.079,0.161,0.118,0.374,0.118,0.639v5.615c0,0.282-0.039,0.508-0.118,0.678c-0.08,0.17-0.186,0.301-0.317,0.391
		c-0.133,0.091-0.288,0.15-0.467,0.181c-0.179,0.028-0.372,0.045-0.577,0.045h-0.148h-0.066c-0.2,0-0.392-0.017-0.571-0.045
		c-0.183-0.029-0.34-0.09-0.473-0.181c-0.131-0.09-0.237-0.221-0.316-0.391c-0.08-0.17-0.119-0.396-0.119-0.678v-7.603h-3.223v0.756
		h0.054c0.199,0,0.39,0.016,0.567,0.044c0.179,0.028,0.337,0.087,0.471,0.176c0.135,0.089,0.243,0.213,0.322,0.373
		c0.078,0.161,0.119,0.374,0.119,0.639v5.703c0,0.264-0.041,0.477-0.119,0.638c-0.079,0.16-0.188,0.282-0.322,0.364
		c-0.134,0.083-0.292,0.136-0.471,0.163c-0.179,0.025-0.368,0.039-0.567,0.039h-0.236v0.757h4.953h0.17h4.681v-0.757h-0.053
		c-0.2,0-0.389-0.014-0.568-0.039c-0.179-0.027-0.336-0.08-0.471-0.163c-0.135-0.082-0.242-0.204-0.32-0.364
		c-0.079-0.161-0.12-0.374-0.12-0.638v-3.797c0-0.388,0.037-0.756,0.111-1.106c0.072-0.354,0.193-0.662,0.364-0.932
		c0.17-0.271,0.395-0.484,0.675-0.643c0.276-0.158,0.623-0.237,1.033-0.237c0.363,0,0.673,0.056,0.926,0.163
		c0.251,0.107,0.456,0.268,0.609,0.479c0.155,0.212,0.27,0.469,0.341,0.774c0.069,0.305,0.105,0.652,0.105,1.047v6.213h3.144v-0.757
		h-0.062C217.749,79.199,217.564,79.183,217.395,79.155z"/>
	<path fill="#525252" d="M201.808,79.155c-0.17-0.029-0.317-0.09-0.439-0.181c-0.123-0.09-0.221-0.221-0.292-0.391
		c-0.068-0.17-0.104-0.396-0.104-0.677v-4.255c0-0.615-0.071-1.146-0.214-1.591c-0.14-0.445-0.345-0.811-0.615-1.094
		c-0.271-0.285-0.604-0.496-0.999-0.634c-0.396-0.139-0.851-0.207-1.359-0.207c-1.229,0-2.111,0.545-2.651,1.636h-0.088
		c0.013-0.17,0.024-0.344,0.035-0.519c0.014-0.152,0.021-0.317,0.026-0.498c0.005-0.178,0.009-0.35,0.009-0.514v-3.955h-3.318v0.756
		h0.141c0.2,0,0.39,0.015,0.567,0.041c0.18,0.023,0.336,0.083,0.472,0.17c0.135,0.089,0.242,0.213,0.321,0.373
		c0.08,0.162,0.118,0.374,0.118,0.638v9.65c0,0.282-0.038,0.508-0.118,0.678c-0.079,0.17-0.186,0.301-0.315,0.391
		c-0.133,0.091-0.289,0.15-0.468,0.181c-0.18,0.028-0.371,0.045-0.577,0.045h-0.141v0.756h4.852v-0.756h-0.053
		c-0.2,0-0.391-0.015-0.568-0.04c-0.179-0.027-0.336-0.08-0.471-0.163c-0.135-0.082-0.242-0.204-0.322-0.364
		c-0.077-0.161-0.118-0.374-0.118-0.638v-3.797c0-0.439,0.044-0.841,0.133-1.199c0.089-0.36,0.223-0.669,0.399-0.924
		c0.18-0.255,0.406-0.451,0.679-0.588c0.274-0.139,0.599-0.207,0.974-0.207c0.364,0,0.673,0.056,0.924,0.163
		c0.253,0.107,0.457,0.268,0.611,0.479c0.156,0.212,0.271,0.469,0.341,0.774c0.07,0.305,0.105,0.652,0.105,1.047v6.213h3.134v-0.756
		h-0.053C202.163,79.199,201.979,79.183,201.808,79.155z"/>
	<path fill="#525252" d="M260.887,77.704c-0.207,0.37-0.518,0.673-0.935,0.905c-0.416,0.233-0.904,0.353-1.462,0.353
		c-0.969,0-1.666-0.312-2.091-0.941c-0.426-0.626-0.64-1.578-0.64-2.855c0-0.802,0.055-1.471,0.158-2.003
		c0.105-0.532,0.258-0.959,0.458-1.274c0.2-0.316,0.438-0.539,0.72-0.669c0.276-0.129,0.591-0.192,0.938-0.192
		c0.305,0,0.556,0.056,0.752,0.163s0.354,0.259,0.468,0.447c0.113,0.191,0.194,0.412,0.24,0.664c0.048,0.251,0.071,0.519,0.071,0.8
		c0.534,0,0.936-0.085,1.207-0.255c0.269-0.17,0.404-0.464,0.404-0.88c0-0.31-0.094-0.58-0.282-0.812
		c-0.188-0.23-0.432-0.423-0.729-0.574c-0.301-0.151-0.637-0.266-1.009-0.34c-0.373-0.072-0.747-0.109-1.122-0.109
		c-0.569,0-1.101,0.083-1.591,0.246c-0.488,0.165-0.915,0.441-1.276,0.835c-0.359,0.394-0.642,0.913-0.846,1.562
		c-0.201,0.647-0.303,1.451-0.303,2.412c0,0.885,0.102,1.64,0.303,2.264c0.204,0.622,0.487,1.135,0.852,1.534
		c0.362,0.397,0.799,0.688,1.304,0.874c0.504,0.185,1.056,0.275,1.653,0.275c0.513,0,0.957-0.051,1.338-0.153
		c0.383-0.103,0.701-0.234,0.956-0.399c0.257-0.162,0.447-0.35,0.576-0.555c0.13-0.205,0.195-0.408,0.195-0.613
		c0-0.164-0.03-0.305-0.089-0.423C261.048,77.869,260.974,77.774,260.887,77.704z"/>
	<path fill="#525252" d="M133.237,71.354c-0.361-0.412-0.798-0.721-1.314-0.922c-0.517-0.204-1.101-0.305-1.752-0.305
		c-1.397,0-2.453,0.411-3.166,1.23s-1.069,2.071-1.069,3.752c0,0.846,0.096,1.58,0.287,2.211c0.19,0.631,0.467,1.153,0.827,1.569
		c0.361,0.416,0.801,0.727,1.317,0.931c0.517,0.205,1.101,0.309,1.752,0.309c1.386,0,2.438-0.412,3.155-1.238
		c0.72-0.826,1.08-2.087,1.08-3.78c0-0.842-0.097-1.575-0.287-2.2C133.874,72.287,133.598,71.768,133.237,71.354z M132.473,76.878
		c-0.085,0.51-0.226,0.935-0.419,1.278c-0.193,0.343-0.446,0.602-0.758,0.777c-0.31,0.176-0.691,0.265-1.144,0.265
		c-0.453,0-0.835-0.089-1.15-0.265c-0.312-0.177-0.567-0.436-0.764-0.777c-0.198-0.345-0.34-0.77-0.428-1.278
		c-0.089-0.511-0.131-1.1-0.131-1.769c0-0.667,0.042-1.253,0.131-1.757c0.088-0.505,0.229-0.924,0.423-1.262
		c0.192-0.337,0.446-0.59,0.757-0.76s0.692-0.255,1.146-0.255c0.45,0,0.835,0.085,1.147,0.255c0.313,0.17,0.568,0.423,0.761,0.76
		c0.194,0.338,0.334,0.757,0.423,1.262c0.089,0.504,0.134,1.09,0.134,1.757C132.6,75.78,132.558,76.368,132.473,76.878z"/>
	<path fill="#525252" d="M236.89,75.542c-0.22-0.229-0.499-0.44-0.841-0.633c-0.34-0.193-0.749-0.391-1.224-0.591
		c-0.399-0.162-0.741-0.312-1.026-0.441c-0.283-0.133-0.517-0.27-0.694-0.409c-0.18-0.142-0.311-0.295-0.392-0.462
		c-0.084-0.168-0.124-0.364-0.124-0.593c0-0.212,0.031-0.405,0.098-0.58c0.063-0.177,0.165-0.329,0.303-0.457
		c0.139-0.129,0.317-0.229,0.533-0.299c0.218-0.07,0.479-0.106,0.784-0.106c0.533,0,0.925,0.167,1.175,0.501
		c0.249,0.335,0.375,0.804,0.375,1.407c0.416,0,0.738-0.1,0.965-0.296c0.225-0.194,0.338-0.458,0.338-0.785
		c0-0.224-0.055-0.437-0.167-0.638c-0.111-0.201-0.279-0.378-0.502-0.527c-0.224-0.15-0.499-0.27-0.828-0.355
		c-0.328-0.089-0.706-0.133-1.135-0.133c-0.512,0-0.976,0.058-1.394,0.168c-0.416,0.112-0.772,0.272-1.073,0.487
		c-0.299,0.214-0.529,0.479-0.69,0.796s-0.242,0.68-0.242,1.09c0,0.393,0.058,0.731,0.168,1.016
		c0.111,0.284,0.278,0.537,0.501,0.761c0.224,0.223,0.507,0.429,0.851,0.619c0.343,0.19,0.746,0.388,1.21,0.593
		c0.436,0.188,0.797,0.355,1.083,0.501c0.289,0.146,0.516,0.29,0.684,0.432c0.166,0.142,0.285,0.291,0.353,0.452
		c0.066,0.16,0.102,0.354,0.102,0.576c0,0.239-0.045,0.46-0.131,0.664c-0.089,0.201-0.217,0.375-0.385,0.519
		c-0.166,0.145-0.373,0.255-0.621,0.333c-0.246,0.079-0.53,0.118-0.854,0.118c-0.363,0-0.671-0.059-0.92-0.179
		c-0.25-0.12-0.452-0.285-0.604-0.494c-0.152-0.207-0.264-0.449-0.326-0.724c-0.065-0.276-0.098-0.571-0.098-0.89
		c-0.104,0-0.226,0.021-0.355,0.058c-0.133,0.039-0.257,0.104-0.37,0.197c-0.114,0.095-0.212,0.223-0.29,0.384
		c-0.079,0.161-0.12,0.361-0.12,0.602c0,0.316,0.071,0.595,0.214,0.832c0.14,0.236,0.339,0.435,0.598,0.596
		c0.259,0.163,0.571,0.281,0.938,0.361c0.367,0.08,0.777,0.118,1.229,0.118c0.534,0,1.02-0.059,1.457-0.175
		c0.438-0.117,0.812-0.296,1.123-0.532c0.312-0.237,0.553-0.531,0.723-0.884c0.17-0.351,0.255-0.762,0.255-1.229
		c0-0.375-0.054-0.706-0.158-0.993C237.274,76.03,237.111,75.771,236.89,75.542z"/>
	<path fill="#525252" d="M252.807,79.155c-0.17-0.029-0.316-0.09-0.44-0.181c-0.122-0.09-0.218-0.221-0.285-0.391
		c-0.066-0.17-0.101-0.396-0.101-0.677v-4.255c0-0.615-0.069-1.146-0.207-1.591c-0.14-0.445-0.338-0.811-0.602-1.094
		c-0.26-0.285-0.575-0.496-0.949-0.634c-0.373-0.139-0.797-0.207-1.272-0.207c-0.288,0-0.562,0.022-0.822,0.066
		c-0.263,0.042-0.509,0.126-0.739,0.246c-0.231,0.12-0.453,0.286-0.66,0.501c-0.209,0.214-0.407,0.486-0.596,0.821h-0.088
		l-0.236-1.459h-2.915v0.756h0.054c0.199,0,0.389,0.016,0.567,0.044s0.337,0.087,0.471,0.176c0.135,0.089,0.243,0.213,0.322,0.373
		c0.078,0.161,0.118,0.374,0.118,0.639v5.615c0,0.282-0.04,0.508-0.118,0.678c-0.079,0.17-0.187,0.301-0.318,0.391
		c-0.131,0.091-0.287,0.15-0.466,0.181c-0.179,0.028-0.371,0.045-0.576,0.045h-0.15h-0.066c-0.198,0-0.391-0.017-0.572-0.045
		c-0.182-0.029-0.338-0.09-0.471-0.181c-0.133-0.09-0.237-0.221-0.316-0.391c-0.08-0.17-0.119-0.396-0.119-0.678v-7.603h-3.222
		v0.756h0.053c0.198,0,0.389,0.016,0.566,0.044c0.181,0.028,0.336,0.087,0.473,0.176c0.134,0.089,0.24,0.213,0.32,0.373
		c0.079,0.161,0.118,0.374,0.118,0.639v5.703c0,0.264-0.039,0.477-0.118,0.638c-0.08,0.16-0.188,0.282-0.32,0.364
		c-0.137,0.083-0.292,0.136-0.473,0.163c-0.179,0.025-0.368,0.039-0.566,0.039h-0.238v0.757h4.953h0.172h4.682v-0.757h-0.054
		c-0.2,0-0.391-0.014-0.568-0.039c-0.179-0.027-0.336-0.08-0.471-0.163c-0.137-0.082-0.242-0.204-0.321-0.364
		c-0.08-0.161-0.119-0.374-0.119-0.638v-3.797c0-0.388,0.037-0.756,0.109-1.106c0.075-0.354,0.194-0.662,0.367-0.932
		c0.17-0.271,0.395-0.484,0.672-0.643c0.279-0.158,0.625-0.237,1.035-0.237c0.362,0,0.673,0.056,0.924,0.163
		c0.253,0.107,0.457,0.268,0.611,0.479c0.156,0.212,0.271,0.469,0.341,0.774c0.068,0.305,0.104,0.652,0.104,1.047v6.213h3.144
		v-0.757h-0.061C253.162,79.199,252.977,79.183,252.807,79.155z"/>
	<path fill="#525252" d="M291.135,74.523c-0.266-0.28-0.579-0.543-0.946-0.78c-0.367-0.241-0.773-0.469-1.219-0.68
		c0.361-0.18,0.694-0.367,0.993-0.557c0.301-0.191,0.556-0.405,0.768-0.644c0.211-0.236,0.375-0.505,0.492-0.804
		s0.177-0.645,0.177-1.037c0-0.451-0.08-0.864-0.239-1.244c-0.157-0.379-0.388-0.703-0.688-0.979
		c-0.304-0.274-0.676-0.49-1.113-0.646c-0.44-0.153-0.943-0.231-1.506-0.231c-0.694,0-1.287,0.091-1.784,0.271
		c-0.496,0.182-0.899,0.422-1.211,0.722c-0.312,0.299-0.539,0.641-0.688,1.027c-0.146,0.387-0.22,0.787-0.22,1.203
		c0,0.375,0.057,0.724,0.172,1.043c0.113,0.318,0.274,0.613,0.479,0.883c0.206,0.27,0.451,0.518,0.739,0.743
		c0.286,0.226,0.603,0.435,0.941,0.628c-0.393,0.188-0.758,0.386-1.092,0.588c-0.335,0.205-0.625,0.437-0.871,0.69
		c-0.247,0.255-0.438,0.545-0.577,0.87c-0.138,0.326-0.207,0.704-0.207,1.138c0,0.476,0.087,0.919,0.261,1.333
		c0.172,0.412,0.431,0.773,0.775,1.079c0.343,0.31,0.77,0.551,1.279,0.727c0.511,0.176,1.104,0.264,1.777,0.264
		c0.658,0,1.255-0.079,1.787-0.24c0.535-0.161,0.989-0.397,1.366-0.708c0.376-0.312,0.666-0.689,0.871-1.138
		c0.205-0.449,0.308-0.957,0.308-1.525c0-0.393-0.069-0.752-0.216-1.081C291.602,75.109,291.398,74.803,291.135,74.523z
		 M286.26,71.5c-0.202-0.211-0.354-0.444-0.458-0.703c-0.103-0.258-0.153-0.549-0.153-0.871c0-0.31,0.046-0.598,0.137-0.861
		c0.09-0.264,0.225-0.489,0.399-0.68c0.177-0.191,0.395-0.34,0.656-0.449c0.263-0.107,0.56-0.163,0.895-0.163
		c0.382,0,0.702,0.063,0.964,0.189c0.261,0.126,0.473,0.294,0.634,0.501c0.161,0.209,0.28,0.444,0.354,0.708
		s0.108,0.532,0.108,0.809c0,0.316-0.025,0.603-0.078,0.856c-0.053,0.255-0.145,0.49-0.272,0.702
		c-0.13,0.215-0.303,0.411-0.524,0.59c-0.22,0.179-0.501,0.354-0.841,0.522c-0.396-0.188-0.75-0.373-1.057-0.559
		C286.718,71.908,286.463,71.709,286.26,71.5z M290.13,77.872c-0.122,0.292-0.298,0.545-0.523,0.756s-0.499,0.377-0.817,0.495
		c-0.319,0.121-0.678,0.181-1.069,0.181c-0.398,0-0.752-0.06-1.058-0.181c-0.305-0.118-0.56-0.288-0.761-0.511
		c-0.204-0.219-0.356-0.479-0.459-0.784c-0.104-0.306-0.153-0.646-0.153-1.021c0-0.68,0.168-1.264,0.502-1.75
		c0.335-0.484,0.786-0.882,1.355-1.186c0.581,0.251,1.073,0.493,1.475,0.726c0.401,0.231,0.729,0.469,0.982,0.711
		c0.251,0.242,0.434,0.495,0.545,0.756c0.11,0.263,0.168,0.543,0.168,0.849C290.315,77.259,290.254,77.578,290.13,77.872z"/>
	<path fill="#525252" d="M141.801,66.445c-0.196-0.108-0.457-0.195-0.778-0.259c-0.322-0.062-0.719-0.092-1.189-0.092
		c-0.492,0-0.936,0.071-1.329,0.214c-0.393,0.146-0.728,0.357-1.004,0.638c-0.275,0.281-0.485,0.629-0.633,1.039
		c-0.146,0.408-0.221,0.886-0.221,1.424v0.896H135v0.853h1.646v6.751c0,0.281-0.039,0.507-0.119,0.677s-0.185,0.301-0.317,0.391
		c-0.131,0.091-0.287,0.15-0.467,0.182c-0.179,0.027-0.37,0.044-0.575,0.044h-0.238v0.756h5.574V79.2h-0.687
		c-0.2,0-0.392-0.017-0.574-0.044c-0.182-0.03-0.338-0.091-0.471-0.182c-0.133-0.09-0.237-0.221-0.316-0.391
		s-0.119-0.396-0.119-0.677v-6.751h2.545v-0.853h-2.545v-1.062c0-0.381,0.021-0.716,0.065-1.001
		c0.044-0.289,0.119-0.529,0.225-0.728c0.106-0.196,0.244-0.345,0.418-0.443c0.173-0.1,0.39-0.148,0.647-0.148
		c0.229,0,0.419,0.041,0.572,0.122c0.151,0.084,0.273,0.19,0.365,0.326c0.091,0.135,0.156,0.288,0.193,0.462
		c0.039,0.172,0.059,0.349,0.059,0.53c0.217,0,0.414-0.021,0.594-0.065c0.179-0.044,0.334-0.107,0.467-0.192
		c0.132-0.085,0.235-0.19,0.308-0.315c0.074-0.126,0.11-0.271,0.11-0.437c0-0.188-0.044-0.356-0.131-0.51
		C142.141,66.689,141.999,66.556,141.801,66.445z"/>
	<path fill="#525252" d="M173.646,71.328c-0.311-0.407-0.695-0.708-1.152-0.904c-0.458-0.196-0.982-0.296-1.577-0.296
		c-0.352,0-0.669,0.043-0.95,0.128c-0.28,0.085-0.533,0.205-0.757,0.36s-0.42,0.346-0.59,0.565
		c-0.172,0.223-0.323,0.473-0.458,0.747h-0.071c0.014-0.298,0.023-0.588,0.036-0.869c0.013-0.246,0.021-0.503,0.026-0.77
		s0.009-0.503,0.009-0.708v-3.305h-3.32v0.756h0.142c0.2,0,0.39,0.015,0.567,0.041c0.18,0.023,0.337,0.083,0.472,0.17
		c0.134,0.089,0.242,0.213,0.322,0.373c0.077,0.162,0.117,0.374,0.117,0.638v9.651c0,0.281-0.041,0.507-0.117,0.677
		c-0.08,0.17-0.187,0.301-0.319,0.391c-0.131,0.091-0.287,0.15-0.465,0.181c-0.182,0.028-0.372,0.045-0.577,0.045h-0.032
		c-0.2,0-0.389-0.015-0.568-0.04c-0.179-0.027-0.336-0.08-0.471-0.163c-0.136-0.082-0.243-0.204-0.322-0.364
		c-0.079-0.161-0.118-0.374-0.118-0.638v-7.689h-3.224v0.756h0.053c0.205,0,0.398,0.016,0.577,0.044
		c0.18,0.028,0.334,0.089,0.468,0.18c0.131,0.093,0.236,0.224,0.316,0.396c0.078,0.174,0.119,0.4,0.119,0.682v3.709
		c0,0.435-0.044,0.828-0.133,1.187c-0.088,0.358-0.226,0.664-0.409,0.919c-0.186,0.255-0.419,0.453-0.705,0.593
		c-0.285,0.143-0.626,0.213-1.026,0.213c-0.362,0-0.667-0.056-0.91-0.163c-0.243-0.109-0.438-0.27-0.581-0.479
		c-0.144-0.211-0.246-0.469-0.309-0.773c-0.062-0.305-0.092-0.652-0.092-1.046v-6.214h-3.23v0.756h0.051
		c0.2,0,0.389,0.016,0.567,0.044c0.18,0.028,0.336,0.087,0.474,0.177c0.135,0.088,0.24,0.212,0.319,0.373
		c0.079,0.16,0.119,0.373,0.119,0.638v4.314c0,0.614,0.067,1.146,0.198,1.593c0.133,0.442,0.324,0.811,0.577,1.097
		c0.253,0.289,0.564,0.499,0.933,0.634c0.37,0.135,0.793,0.201,1.27,0.201c0.294,0,0.574-0.021,0.846-0.065
		c0.269-0.044,0.527-0.125,0.773-0.246c0.247-0.119,0.48-0.285,0.7-0.496c0.22-0.21,0.421-0.486,0.604-0.826h0.087l0.239,1.46h2.698
		h0.163h2.727l0.315-1.407h0.115c0.129,0.235,0.279,0.448,0.453,0.643c0.173,0.193,0.373,0.359,0.598,0.501
		c0.228,0.141,0.481,0.25,0.764,0.326c0.281,0.075,0.595,0.112,0.94,0.112c0.594,0,1.119-0.097,1.577-0.293
		c0.457-0.196,0.843-0.499,1.152-0.91c0.312-0.41,0.549-0.933,0.709-1.563c0.161-0.635,0.243-1.385,0.243-2.251
		c0-0.86-0.082-1.605-0.243-2.231C174.195,72.253,173.958,71.735,173.646,71.328z M172.723,76.767
		c-0.082,0.485-0.214,0.892-0.393,1.218c-0.18,0.329-0.408,0.577-0.687,0.743c-0.279,0.167-0.619,0.252-1.019,0.252
		c-0.476,0-0.87-0.085-1.184-0.252c-0.315-0.166-0.566-0.414-0.758-0.743c-0.19-0.326-0.325-0.731-0.405-1.212
		c-0.079-0.479-0.118-1.033-0.118-1.662c0-0.648,0.039-1.216,0.118-1.694c0.08-0.481,0.213-0.88,0.4-1.196
		c0.188-0.315,0.438-0.552,0.754-0.706c0.312-0.155,0.706-0.232,1.175-0.232c0.399,0,0.741,0.078,1.025,0.236
		c0.283,0.157,0.517,0.396,0.695,0.711c0.179,0.316,0.311,0.713,0.393,1.191c0.083,0.478,0.124,1.037,0.124,1.674
		C172.847,75.727,172.806,76.285,172.723,76.767z"/>
	<path fill="#525252" d="M153.086,68.112c-0.362-0.324-0.824-0.574-1.382-0.749c-0.557-0.171-1.214-0.258-1.971-0.258h-5.063v0.756
		h0.229c0.2,0,0.39,0.013,0.567,0.039c0.18,0.026,0.336,0.085,0.472,0.171c0.136,0.09,0.242,0.214,0.321,0.374
		c0.08,0.161,0.119,0.373,0.119,0.638v8.825c0,0.281-0.039,0.507-0.114,0.677c-0.076,0.17-0.182,0.301-0.317,0.391
		c-0.135,0.091-0.292,0.15-0.471,0.182c-0.18,0.027-0.372,0.044-0.577,0.044h-0.229v0.756h5.608V79.2h-0.598
		c-0.2,0-0.39-0.015-0.568-0.04c-0.179-0.027-0.336-0.08-0.471-0.163c-0.137-0.082-0.243-0.204-0.322-0.364
		c-0.08-0.161-0.119-0.374-0.119-0.638v-3.04h1.136c0.893,0,1.646-0.113,2.263-0.338c0.617-0.228,1.116-0.527,1.497-0.906
		c0.382-0.377,0.656-0.812,0.822-1.305c0.168-0.491,0.251-1.006,0.251-1.537c0-0.588-0.088-1.111-0.269-1.573
		C153.721,68.831,153.451,68.436,153.086,68.112z M152.052,72.391c-0.114,0.401-0.295,0.729-0.542,0.983
		c-0.247,0.255-0.563,0.44-0.951,0.555s-0.854,0.171-1.399,0.171H148.2v-6.134h1.225c0.511,0,0.943,0.061,1.298,0.179
		c0.354,0.121,0.644,0.306,0.866,0.551c0.224,0.246,0.387,0.557,0.485,0.929c0.099,0.371,0.15,0.811,0.15,1.312
		C152.224,71.504,152.166,71.99,152.052,72.391z"/>
	<path fill="#525252" d="M190.933,75.542c-0.221-0.229-0.499-0.44-0.842-0.633c-0.34-0.193-0.748-0.391-1.223-0.591
		c-0.398-0.162-0.741-0.312-1.026-0.441c-0.284-0.133-0.517-0.27-0.694-0.409c-0.18-0.142-0.311-0.295-0.393-0.462
		c-0.083-0.168-0.123-0.364-0.123-0.593c0-0.212,0.031-0.405,0.098-0.58c0.062-0.177,0.165-0.329,0.303-0.457
		c0.138-0.129,0.316-0.229,0.533-0.299c0.217-0.07,0.479-0.106,0.783-0.106c0.534,0,0.926,0.167,1.176,0.501
		c0.249,0.335,0.375,0.804,0.375,1.407c0.416,0,0.737-0.1,0.964-0.296c0.226-0.194,0.339-0.458,0.339-0.785
		c0-0.224-0.056-0.437-0.167-0.638s-0.279-0.378-0.502-0.527c-0.224-0.15-0.5-0.27-0.829-0.355
		c-0.327-0.089-0.706-0.133-1.134-0.133c-0.512,0-0.976,0.058-1.394,0.168c-0.415,0.112-0.772,0.272-1.072,0.487
		c-0.301,0.214-0.53,0.479-0.691,0.796s-0.242,0.68-0.242,1.09c0,0.393,0.058,0.731,0.168,1.016
		c0.111,0.284,0.277,0.537,0.501,0.761c0.224,0.223,0.507,0.429,0.851,0.619c0.343,0.19,0.746,0.388,1.21,0.593
		c0.436,0.188,0.796,0.355,1.083,0.501c0.288,0.146,0.515,0.29,0.684,0.432c0.168,0.142,0.284,0.291,0.353,0.452
		c0.066,0.16,0.102,0.354,0.102,0.576c0,0.239-0.045,0.46-0.132,0.664c-0.088,0.201-0.216,0.375-0.384,0.519
		c-0.166,0.145-0.373,0.255-0.621,0.333c-0.246,0.079-0.531,0.118-0.854,0.118c-0.364,0-0.671-0.059-0.921-0.179
		c-0.249-0.12-0.451-0.285-0.604-0.494c-0.152-0.207-0.262-0.449-0.325-0.724c-0.065-0.276-0.098-0.571-0.098-0.89
		c-0.104,0-0.226,0.021-0.355,0.058c-0.133,0.039-0.255,0.104-0.37,0.197c-0.114,0.095-0.212,0.223-0.29,0.384
		c-0.08,0.161-0.12,0.361-0.12,0.602c0,0.316,0.07,0.595,0.213,0.832c0.14,0.236,0.34,0.435,0.599,0.596
		c0.258,0.163,0.571,0.281,0.938,0.361c0.367,0.08,0.777,0.118,1.229,0.118c0.534,0,1.02-0.059,1.458-0.175
		c0.438-0.117,0.811-0.296,1.122-0.532c0.312-0.237,0.552-0.531,0.722-0.884c0.17-0.351,0.255-0.762,0.255-1.229
		c0-0.375-0.053-0.706-0.156-0.993C191.316,76.03,191.154,75.771,190.933,75.542z"/>
	<path fill="#525252" d="M184.1,79.155c-0.183-0.029-0.338-0.09-0.472-0.181c-0.133-0.09-0.236-0.221-0.315-0.391
		c-0.08-0.17-0.119-0.396-0.119-0.677v-7.604h-3.223v0.756h0.054c0.198,0,0.388,0.016,0.565,0.044
		c0.182,0.028,0.336,0.087,0.474,0.176c0.134,0.089,0.24,0.213,0.319,0.373c0.079,0.161,0.118,0.374,0.118,0.639v5.703
		c0,0.264-0.039,0.477-0.118,0.638c-0.079,0.16-0.187,0.282-0.319,0.364c-0.137,0.083-0.292,0.136-0.474,0.163
		c-0.179,0.025-0.367,0.04-0.565,0.04h-0.218c-0.205,0-0.398-0.017-0.577-0.045c-0.18-0.029-0.336-0.09-0.472-0.181
		c-0.135-0.09-0.239-0.221-0.315-0.391s-0.115-0.396-0.115-0.678V66.279h-3.406v0.756h0.229c0.2,0,0.39,0.015,0.567,0.041
		c0.18,0.023,0.337,0.083,0.472,0.17c0.137,0.089,0.242,0.213,0.322,0.373c0.078,0.163,0.117,0.374,0.117,0.638v9.651
		c0,0.281-0.039,0.507-0.117,0.677c-0.08,0.17-0.187,0.301-0.316,0.391c-0.133,0.091-0.289,0.15-0.468,0.182
		c-0.18,0.027-0.371,0.044-0.577,0.044h-0.229v0.756h4.864h0.252h4.873V79.2h-0.237C184.474,79.199,184.282,79.183,184.1,79.155z"/>
	<path fill="#525252" d="M310.105,75.437c-0.146-0.328-0.35-0.634-0.612-0.914c-0.264-0.28-0.58-0.543-0.946-0.78
		c-0.365-0.241-0.772-0.469-1.22-0.68c0.365-0.18,0.696-0.367,0.995-0.557c0.299-0.191,0.556-0.405,0.766-0.644
		c0.213-0.236,0.376-0.505,0.494-0.804c0.117-0.299,0.175-0.645,0.175-1.037c0-0.451-0.079-0.864-0.235-1.244
		c-0.159-0.379-0.391-0.703-0.692-0.979c-0.303-0.274-0.673-0.49-1.113-0.646c-0.439-0.153-0.94-0.231-1.506-0.231
		c-0.691,0-1.286,0.091-1.782,0.271c-0.496,0.182-0.899,0.422-1.21,0.722c-0.312,0.299-0.542,0.641-0.688,1.027
		c-0.146,0.387-0.221,0.787-0.221,1.203c0,0.375,0.059,0.724,0.172,1.043c0.114,0.318,0.273,0.613,0.479,0.883
		s0.453,0.518,0.739,0.743c0.289,0.226,0.602,0.435,0.943,0.628c-0.396,0.188-0.758,0.386-1.093,0.588
		c-0.334,0.205-0.626,0.437-0.872,0.69c-0.245,0.254-0.438,0.545-0.576,0.87c-0.139,0.326-0.207,0.704-0.207,1.138
		c0,0.476,0.087,0.919,0.26,1.333c0.174,0.412,0.432,0.773,0.774,1.079c0.345,0.31,0.771,0.551,1.281,0.727
		c0.51,0.176,1.104,0.264,1.778,0.264c0.657,0,1.253-0.079,1.788-0.24c0.534-0.161,0.989-0.397,1.364-0.708
		c0.375-0.312,0.665-0.689,0.872-1.138c0.204-0.449,0.309-0.957,0.309-1.525C310.322,76.125,310.249,75.766,310.105,75.437z
		 M304.62,71.5c-0.202-0.211-0.355-0.444-0.459-0.703c-0.103-0.258-0.153-0.549-0.153-0.871c0-0.31,0.046-0.598,0.139-0.861
		c0.09-0.264,0.223-0.489,0.399-0.68c0.175-0.191,0.396-0.34,0.656-0.449c0.26-0.107,0.558-0.163,0.895-0.163
		c0.381,0,0.702,0.063,0.963,0.189c0.262,0.126,0.473,0.294,0.635,0.501c0.161,0.209,0.278,0.444,0.353,0.708
		c0.072,0.264,0.109,0.532,0.109,0.809c0,0.316-0.026,0.603-0.079,0.856s-0.144,0.49-0.271,0.702
		c-0.131,0.215-0.306,0.411-0.524,0.59c-0.221,0.179-0.5,0.354-0.84,0.522c-0.4-0.188-0.753-0.373-1.058-0.559
		C305.076,71.908,304.823,71.709,304.62,71.5z M308.49,77.872c-0.124,0.292-0.299,0.545-0.523,0.756
		c-0.227,0.211-0.5,0.377-0.819,0.495c-0.32,0.121-0.676,0.181-1.068,0.181c-0.399,0-0.752-0.06-1.057-0.181
		c-0.307-0.118-0.561-0.288-0.764-0.511c-0.201-0.219-0.354-0.479-0.458-0.784c-0.103-0.306-0.153-0.646-0.153-1.021
		c0-0.68,0.168-1.264,0.503-1.75c0.334-0.484,0.785-0.882,1.354-1.186c0.582,0.251,1.072,0.493,1.477,0.726
		c0.401,0.231,0.729,0.469,0.979,0.711c0.253,0.242,0.437,0.495,0.547,0.756c0.111,0.263,0.166,0.543,0.166,0.849
		C308.674,77.259,308.612,77.578,308.49,77.872z"/>
</g>
<g>
	<polygon fill="#F47A20" points="6.339,9.287 0,9.287 0,0.737 21.67,0.737 21.67,9.287 15.332,9.287 15.332,52.333 6.339,52.333 	
		"/>
	<polygon fill="#F47A20" points="24.028,0.736 33.021,0.736 33.021,22.112 40.834,22.112 40.834,0.736 49.824,0.736 49.824,52.333 
		40.834,52.333 40.834,30.662 33.021,30.662 33.021,52.333 24.028,52.333 	"/>
	<polygon fill="#F47A20" points="52.552,0.736 72.306,0.736 72.306,9.285 61.545,9.285 61.545,22.112 71.052,22.112 71.052,30.662 
		61.545,30.662 61.545,43.782 72.527,43.782 72.527,52.333 52.552,52.333 	"/>
	<path fill="#F47A20" d="M84.318,0.736h7.812c8.698,0,16.807,3.537,16.807,13.12v0.369c0,6.634-3.759,9.876-7.445,11.646
		c4.349,1.916,8.108,4.938,8.108,11.497v0.665c0,9.139-7.074,14.299-17.102,14.299h-8.181V0.736z M93.458,22.407
		c3.98,0,6.634-2.286,6.634-6.782v-0.147c0-4.496-2.653-6.412-6.634-6.412h-0.146v13.342H93.458z M93.533,44.003
		c4.127,0,7.074-2.434,7.074-6.709v-0.368c0-4.273-2.947-6.706-7.074-6.706h-0.222v13.783H93.533z"/>
	<path fill="#F47A20" d="M110.999,27.861v-2.653C110.999,8.181,116.527,0,124.71,0s13.709,8.181,13.709,25.207v2.653
		c0,17.027-5.526,25.208-13.709,25.208S110.999,44.888,110.999,27.861 M129.279,27.861v-2.653c0-13.268-1.843-16.953-4.569-16.953
		c-2.726,0-4.569,3.686-4.569,16.953v2.653c0,13.269,1.843,16.953,4.569,16.953C127.437,44.814,129.279,41.129,129.279,27.861"/>
	<path fill="#F47A20" d="M140.483,27.861v-2.653C140.483,8.181,146.012,0,154.192,0c8.181,0,13.709,8.181,13.709,25.207v2.653
		c0,17.027-5.528,25.208-13.709,25.208C146.012,53.069,140.483,44.888,140.483,27.861 M158.761,27.861v-2.653
		c0-13.268-1.842-16.953-4.568-16.953c-2.729,0-4.57,3.686-4.57,16.953v2.653c0,13.269,1.843,16.953,4.57,16.953
		C156.919,44.814,158.761,41.129,158.761,27.861"/>
	<polygon fill="#F47A20" points="170.85,0.736 179.842,0.736 179.842,22.332 187.139,0.736 197.311,0.736 188.612,22.554 
		197.457,52.333 187.435,52.333 181.831,32.799 179.842,38.475 179.842,52.333 170.85,52.333 	"/>
	<path fill="#F47A20" d="M197.973,50.562v-9.359c3.169,1.843,5.675,2.875,8.106,2.875c2.581,0,4.792-1.253,4.792-4.423v-0.146
		c0-2.358-0.737-4.128-5.012-8.993c-6.119-6.929-8.625-10.245-8.625-16.51v-0.148c0-8.254,5.381-13.487,12.531-13.487
		c3.61,0,5.749,0.516,7.96,1.621v9.36c-2.803-1.621-4.495-2.357-6.854-2.357c-2.506,0-4.644,1.622-4.644,4.423v0.146
		c0,2.434,0.736,3.318,5.012,8.256c7.076,8.182,8.623,11.351,8.623,17.247v0.147c0,8.107-5.675,13.489-12.75,13.489
		C203.574,52.701,200.553,51.815,197.973,50.562"/>
	<polygon fill="#F47A20" points="221.559,0.736 241.312,0.736 241.312,9.285 230.552,9.285 230.552,22.112 240.06,22.112 
		240.06,30.662 230.552,30.662 230.552,43.782 241.533,43.782 241.533,52.333 221.559,52.333 	"/>
	<polygon fill="#F47A20" points="244.48,0.736 253.474,0.736 253.474,43.782 262.981,43.782 262.981,52.333 244.48,52.333 	"/>
	<polygon fill="#F47A20" points="265.56,0.736 274.553,0.736 274.553,43.782 284.061,43.782 284.061,52.333 265.56,52.333 	"/>
	<polygon fill="#F47A20" points="286.639,0.736 306.393,0.736 306.393,9.285 295.631,9.285 295.631,22.112 305.14,22.112 
		305.14,30.662 295.631,30.662 295.631,43.782 306.613,43.782 306.613,52.333 286.639,52.333 	"/>
	<path fill="#F47A20" d="M309.561,0.736h9.287c9.214,0,15.921,4.866,15.921,16.438v0.663c0,6.707-2.653,10.981-6.044,13.562
		l6.928,20.932h-9.581l-5.823-17.982H320.1h-1.547V52.33h-8.992V0.736z M318.995,26.24c3.907,0,6.78-2.287,6.78-8.33V17.32
		c0-6.483-3.094-8.181-7.001-8.181h-0.223V26.24H318.995z"/>
</g>
</svg>
